<svg viewBox="0 0 42 40" xmlns="http://www.w3.org/2000/svg" fill="none"><g clip-path="url(#a)"><path d="M21.003 0c10.824-.047 20.032 8.735 20.001 20.062-.03 11.049-8.962 19.976-20.071 19.938-11.192-.038-19.929-9.127-19.932-19.945-.003-11.118 8.907-20.055 20.003-20.055z" fill="#FECA00"/><path d="M8.499 21.274c-.002-.479.091-.954.273-1.398.182-.443.45-.847.788-1.186.338-.34.74-.609 1.183-.794.443-.184.917-.279 1.397-.279 2.026-.003 3.695 1.665 3.673 3.67-.022 2.019-1.662 3.648-3.67 3.645-2.014-.003-3.644-1.639-3.645-3.658zM33.503 21.279c0 .968-.385 1.897-1.069 2.581-.684.685-1.612 1.07-2.58 1.071-2.007 0-3.65-1.635-3.665-3.65-.015-2.009 1.651-3.67 3.678-3.665 2.017.005 3.637 1.636 3.637 3.662z" fill="#171615"/><path d="M21.015 26.572c1.672-.003 3.342.044 5.003.258.449.058.682.291.676.677-.006.379-.253.605-.703.656-2.977.336-5.959.317-8.942.113-.367-.025-.732-.076-1.096-.119-.401-.048-.638-.287-.645-.645-.008-.379.223-.625.641-.678 1.68-.215 3.371-.267 5.064-.262z" fill="#191715"/></g><defs><clipPath id="a"><path fill="#fff" d="M.996 0h40.01v40h-40.01z"/></clipPath></defs></svg>